<svg aria-hidden="true" style="position: absolute; width: 0; height: 0; overflow: hidden;" version="1.1" xmlns="http://www.w3.org/2000/svg" xmlns:xlink="http://www.w3.org/1999/xlink">
<defs>
<symbol id="icon-keyboard" viewBox="0 0 32 32">
<path d="M10.381 15.653l0.728-0.728 0.728 0.728-0.728 0.728z"></path>
<path d="M5.493 20.544l0.728 0.728 0.723-0.728-0.723-0.723z"></path>
<path d="M17.72 13.21l0.724-0.729 0.729 0.724-0.724 0.729z"></path>
<path d="M20.166 10.764l0.724-0.729 0.729 0.724-0.724 0.729z"></path>
<path d="M15.273 15.653l0.728-0.728 0.728 0.728-0.728 0.728z"></path>
<path d="M17.72 8.318l0.724-0.729 0.729 0.724-0.724 0.729z"></path>
<path d="M15.273 10.761l0.728-0.728 0.728 0.728-0.728 0.728z"></path>
<path d="M12.827 13.207l0.728-0.728 0.728 0.728-0.728 0.728z"></path>
<path d="M10.381 20.544l0.728-0.728 0.728 0.728-0.728 0.728z"></path>
<path d="M7.937 18.098l0.726-0.726 0.726 0.726-0.726 0.726z"></path>
<path d="M20.165 5.872l0.726-0.727 3.175 3.17-0.726 0.727z"></path>
<path d="M12.827 18.099l0.728-0.728 0.728 0.728-0.728 0.728z"></path>
<path d="M22.611 13.208l0.726-0.726 0.726 0.726-0.726 0.726z"></path>
<path d="M25.052 10.761l0.728-0.728 0.728 0.728-0.728 0.728z"></path>
<path d="M11.497 11.104l-0.875-0.585-0.567 0.571 0.58 0.87z"></path>
<path d="M28.367 10.444l-7.164-7.159c-0.082-0.084-0.195-0.131-0.313-0.129-0.119-0.001-0.233 0.045-0.317 0.129l-16.943 16.942c-0.174 0.175-0.174 0.458 0 0.634l7.164 7.159c0.176 0.17 0.454 0.17 0.629 0l16.943-16.943c0.174-0.175 0.174-0.458 0-0.634zM19.53 5.24l0.727-0.728c0.168-0.167 0.395-0.261 0.632-0.261s0.464 0.094 0.632 0.261l3.173 3.173c0.167 0.168 0.261 0.395 0.261 0.632s-0.094 0.464-0.261 0.632l-0.727 0.728c-0.168 0.166-0.395 0.259-0.632 0.259s-0.463-0.093-0.632-0.259l-3.173-3.173c-0.167-0.168-0.261-0.395-0.261-0.632s0.094-0.464 0.261-0.632zM12.197 18.728c-0.167-0.168-0.261-0.395-0.261-0.632s0.094-0.464 0.261-0.632l0.727-0.723c0.168-0.167 0.395-0.261 0.632-0.261s0.464 0.094 0.632 0.261l0.723 0.723c0.167 0.168 0.261 0.395 0.261 0.632s-0.094 0.464-0.261 0.632l-0.723 0.727c-0.168 0.168-0.396 0.263-0.634 0.263-0.236-0.001-0.463-0.095-0.629-0.263zM12.728 20.544c0 0.236-0.093 0.462-0.259 0.629l-0.727 0.728c-0.167 0.168-0.394 0.263-0.632 0.263s-0.465-0.095-0.632-0.263l-0.728-0.728c-0.169-0.166-0.264-0.393-0.263-0.629-0.001-0.238 0.094-0.467 0.263-0.634l0.728-0.727c0.168-0.167 0.395-0.261 0.632-0.261s0.464 0.094 0.632 0.261l0.727 0.727c0.166 0.169 0.259 0.397 0.259 0.634zM14.643 16.282c-0.167-0.167-0.261-0.393-0.261-0.629s0.094-0.463 0.261-0.629l0.728-0.728c0.167-0.167 0.393-0.261 0.629-0.261s0.463 0.094 0.629 0.261l0.727 0.728c0.167 0.167 0.261 0.393 0.261 0.629s-0.094 0.463-0.261 0.629l-0.727 0.728c-0.166 0.168-0.393 0.263-0.629 0.263s-0.463-0.095-0.629-0.263zM17.088 13.84c-0.167-0.168-0.261-0.395-0.261-0.632s0.094-0.464 0.261-0.632l0.723-0.727c0.168-0.167 0.395-0.261 0.632-0.261s0.464 0.094 0.632 0.261l0.727 0.727c0.167 0.168 0.261 0.395 0.261 0.632s-0.094 0.464-0.261 0.632l-0.727 0.723c-0.167 0.168-0.393 0.263-0.629 0.263-0.238-0.001-0.466-0.095-0.634-0.263zM19.53 11.394v0c-0.166-0.169-0.259-0.397-0.259-0.634-0-0.236 0.093-0.462 0.259-0.629l0.727-0.728c0.168-0.167 0.395-0.261 0.632-0.261s0.464 0.094 0.632 0.261l0.728 0.728c0.169 0.166 0.264 0.393 0.263 0.629 0.001 0.238-0.094 0.467-0.263 0.634l-0.728 0.727c-0.168 0.166-0.395 0.259-0.632 0.259s-0.463-0.093-0.632-0.259zM17.088 7.686l0.723-0.727c0.168-0.167 0.395-0.261 0.632-0.261s0.464 0.094 0.632 0.261l0.727 0.727c0.167 0.168 0.261 0.395 0.261 0.632s-0.094 0.464-0.261 0.632l-0.727 0.728c-0.167 0.167-0.394 0.26-0.629 0.259-0.237 0.001-0.465-0.092-0.634-0.259l-0.723-0.728c-0.169-0.167-0.264-0.394-0.264-0.632s0.095-0.465 0.264-0.632zM14.643 10.132l0.728-0.728c0.167-0.167 0.393-0.261 0.629-0.261s0.463 0.094 0.629 0.261l0.728 0.728c0.169 0.166 0.264 0.393 0.263 0.629 0.001 0.238-0.094 0.467-0.263 0.634l-0.728 0.727c-0.168 0.166-0.394 0.259-0.629 0.259s-0.462-0.093-0.629-0.259l-0.727-0.727c-0.169-0.167-0.264-0.396-0.263-0.634-0.001-0.237 0.094-0.464 0.263-0.629zM12.197 12.577l0.728-0.728c0.168-0.167 0.395-0.261 0.632-0.261s0.464 0.094 0.632 0.261l0.723 0.727c0.167 0.168 0.261 0.395 0.261 0.632s-0.094 0.464-0.261 0.632l-0.723 0.723c-0.168 0.168-0.396 0.263-0.634 0.263-0.236-0.001-0.463-0.095-0.629-0.263l-0.727-0.723c-0.167-0.168-0.261-0.395-0.261-0.632s0.094-0.464 0.261-0.632zM9.751 15.023l0.728-0.728c0.168-0.167 0.395-0.261 0.632-0.261s0.464 0.094 0.632 0.261l0.727 0.728c0.167 0.167 0.261 0.393 0.261 0.629s-0.094 0.463-0.261 0.629l-0.727 0.728c-0.167 0.168-0.394 0.263-0.632 0.263s-0.465-0.095-0.632-0.263l-0.728-0.728c-0.167-0.167-0.261-0.393-0.261-0.629s0.094-0.463 0.261-0.629zM7.305 17.465l0.728-0.723c0.168-0.167 0.395-0.261 0.632-0.261s0.464 0.094 0.632 0.261l0.728 0.723c0.167 0.168 0.261 0.395 0.261 0.632s-0.094 0.464-0.261 0.632l-0.728 0.727c-0.167 0.168-0.394 0.263-0.632 0.263s-0.465-0.095-0.632-0.263l-0.727-0.727c-0.167-0.168-0.261-0.395-0.261-0.632s0.094-0.464 0.261-0.632zM6.22 22.164c-0.238 0.001-0.467-0.094-0.634-0.263l-0.728-0.728c-0.166-0.168-0.259-0.395-0.259-0.632s0.093-0.463 0.259-0.632l0.728-0.727c0.171-0.161 0.397-0.251 0.632-0.251s0.461 0.090 0.632 0.251l0.727 0.727c0.168 0.167 0.263 0.394 0.263 0.632s-0.095 0.465-0.263 0.632l-0.727 0.728c-0.166 0.168-0.393 0.263-0.629 0.263zM8.662 24.606h-0c-0.236 0.001-0.462-0.092-0.629-0.259l-0.727-0.727c-0.167-0.168-0.261-0.395-0.261-0.632s0.094-0.464 0.261-0.632l0.727-0.728c0.168-0.167 0.395-0.261 0.632-0.261s0.464 0.094 0.632 0.261l0.728 0.728c0.167 0.168 0.261 0.395 0.261 0.632s-0.094 0.464-0.261 0.632l-0.728 0.727c-0.168 0.168-0.396 0.261-0.634 0.259zM12.469 26.065l-0.728 0.728c-0.168 0.166-0.395 0.259-0.632 0.259s-0.463-0.093-0.632-0.259l-0.728-0.728c-0.167-0.168-0.261-0.395-0.261-0.632s0.094-0.464 0.261-0.632l0.728-0.727c0.168-0.167 0.395-0.261 0.632-0.261s0.464 0.094 0.632 0.261l0.727 0.727c0.167 0.168 0.261 0.395 0.261 0.632s-0.094 0.464-0.261 0.632zM14.911 23.619l-0.723 0.728c-0.168 0.167-0.397 0.26-0.634 0.259-0.236 0.001-0.462-0.092-0.629-0.259l-0.727-0.727c-0.167-0.168-0.261-0.395-0.261-0.632s0.094-0.464 0.261-0.632l0.727-0.728c0.168-0.167 0.395-0.261 0.632-0.261s0.464 0.094 0.632 0.261l0.723 0.728c0.169 0.167 0.264 0.394 0.264 0.632s-0.095 0.465-0.264 0.632zM22.248 16.282l-5.619 5.619c-0.166 0.168-0.393 0.263-0.629 0.263s-0.463-0.095-0.629-0.263l-0.728-0.728c-0.169-0.166-0.264-0.393-0.263-0.629-0.001-0.238 0.094-0.467 0.263-0.634l5.615-5.615c0.168-0.167 0.395-0.261 0.632-0.261s0.464 0.094 0.632 0.261l0.728 0.728c0.167 0.167 0.261 0.393 0.261 0.629s-0.094 0.463-0.261 0.629zM24.694 13.84l-0.728 0.723c-0.167 0.168-0.394 0.263-0.632 0.263s-0.465-0.095-0.632-0.263l-0.728-0.723c-0.167-0.168-0.261-0.395-0.261-0.632s0.094-0.464 0.261-0.632l0.728-0.727c0.168-0.167 0.395-0.261 0.632-0.261s0.464 0.094 0.632 0.261l0.727 0.727c0.167 0.168 0.261 0.395 0.261 0.632s-0.094 0.464-0.261 0.632zM27.14 11.394l-0.728 0.728c-0.168 0.166-0.395 0.259-0.632 0.259s-0.463-0.093-0.632-0.259l-0.727-0.727c-0.167-0.168-0.261-0.395-0.261-0.632s0.094-0.464 0.261-0.632l0.727-0.728c0.168-0.167 0.395-0.261 0.632-0.261s0.464 0.094 0.632 0.261l0.728 0.728c0.166 0.168 0.259 0.395 0.259 0.632s-0.093 0.463-0.259 0.632z"></path>
<path d="M12.827 22.99l0.728-0.728 0.728 0.728-0.728 0.728z"></path>
<path d="M15.274 20.546l5.618-5.618 0.726 0.726-5.618 5.618z"></path>
<path d="M7.937 22.988l0.729-0.724 0.724 0.729-0.729 0.724z"></path>
<path d="M10.384 25.435l0.726-0.726 0.724 0.724-0.726 0.726z"></path>
<path d="M9.751 10.743c-0.114 0-0.223-0.043-0.306-0.121-1.861-1.75-1.286-2.998-0.823-4.001 0.302-0.656 0.563-1.222 0.268-1.96-0.63-1.577-4.399-1.623-5.797-1.506l0-0c-0.118 0.010-0.235-0.027-0.326-0.104s-0.147-0.186-0.157-0.304c-0.010-0.118 0.028-0.235 0.104-0.326s0.186-0.147 0.304-0.156c0.582-0.049 5.714-0.402 6.7 2.064 0.438 1.094 0.053 1.929-0.286 2.665-0.446 0.969-0.769 1.668 0.624 2.977 0.133 0.126 0.177 0.319 0.109 0.49s-0.232 0.282-0.415 0.282z"></path>
<path d="M4.105 35.648c-0.077 0.040-0.158 0.071-0.241 0.090s-0.17 0.031-0.261 0.031c-0.271 0-0.486-0.076-0.644-0.227s-0.238-0.357-0.238-0.616c0-0.26 0.079-0.466 0.238-0.617s0.373-0.227 0.644-0.227c0.091 0 0.178 0.010 0.261 0.031s0.164 0.051 0.241 0.090v0.337c-0.078-0.053-0.155-0.092-0.23-0.117s-0.155-0.037-0.238-0.037c-0.15 0-0.268 0.048-0.353 0.144s-0.128 0.228-0.128 0.396c0 0.168 0.043 0.3 0.128 0.396s0.203 0.144 0.353 0.144c0.084 0 0.163-0.012 0.238-0.037s0.152-0.064 0.23-0.117z"></path>
<path d="M5.342 34.849c-0.034-0.016-0.068-0.028-0.102-0.035s-0.068-0.011-0.102-0.011c-0.101 0-0.178 0.032-0.232 0.096s-0.081 0.156-0.081 0.276v0.563h-0.39v-1.221h0.39v0.201c0.050-0.080 0.108-0.138 0.173-0.175s0.143-0.055 0.234-0.055c0.013 0 0.027 0.001 0.043 0.002s0.038 0.004 0.066 0.008z"></path>
<path d="M6.754 35.124v0.111h-0.912c0.009 0.091 0.042 0.16 0.099 0.206s0.136 0.069 0.238 0.069c0.082 0 0.166-0.012 0.253-0.037s0.174-0.061 0.265-0.111v0.301c-0.092 0.035-0.185 0.061-0.277 0.078s-0.184 0.027-0.276 0.027c-0.221 0-0.392-0.056-0.515-0.168s-0.184-0.269-0.184-0.472c0-0.199 0.060-0.356 0.18-0.47s0.286-0.171 0.497-0.171c0.192 0 0.345 0.058 0.46 0.173s0.173 0.27 0.173 0.463zM6.353 34.994c0-0.074-0.022-0.133-0.065-0.179s-0.1-0.069-0.17-0.069c-0.076 0-0.137 0.021-0.185 0.064s-0.076 0.104-0.087 0.183z"></path>
<path d="M7.597 35.188c-0.081 0-0.143 0.014-0.184 0.042s-0.061 0.068-0.061 0.122c0 0.049 0.016 0.088 0.049 0.116s0.079 0.042 0.138 0.042c0.073 0 0.135-0.026 0.185-0.078s0.076-0.119 0.076-0.198v-0.045zM8.193 35.041v0.696h-0.394v-0.181c-0.052 0.074-0.111 0.128-0.176 0.162s-0.145 0.050-0.238 0.050c-0.127 0-0.229-0.037-0.309-0.111s-0.118-0.169-0.118-0.287c0-0.143 0.049-0.248 0.148-0.315s0.253-0.101 0.464-0.101h0.229v-0.031c0-0.062-0.025-0.107-0.073-0.135s-0.124-0.043-0.227-0.043c-0.084 0-0.162 0.009-0.234 0.025s-0.139 0.042-0.2 0.075v-0.297c0.084-0.020 0.168-0.036 0.252-0.046s0.168-0.016 0.253-0.016c0.22 0 0.378 0.044 0.476 0.131s0.147 0.228 0.147 0.423z"></path>
<path d="M8.981 34.17v0.346h0.402v0.28h-0.402v0.518c0 0.056 0.011 0.095 0.034 0.115s0.068 0.030 0.134 0.030h0.2v0.279h-0.335c-0.154 0-0.263-0.032-0.327-0.096s-0.096-0.173-0.096-0.327v-0.518h-0.194v-0.28h0.194v-0.346z"></path>
<path d="M10.84 35.124v0.111h-0.912c0.009 0.091 0.042 0.16 0.099 0.206s0.136 0.069 0.238 0.069c0.082 0 0.166-0.012 0.253-0.037s0.174-0.061 0.265-0.111v0.301c-0.092 0.035-0.185 0.061-0.277 0.078s-0.184 0.027-0.276 0.027c-0.221 0-0.392-0.056-0.515-0.168s-0.184-0.269-0.184-0.472c0-0.199 0.060-0.356 0.18-0.47s0.286-0.171 0.497-0.171c0.192 0 0.345 0.058 0.46 0.173s0.173 0.27 0.173 0.463zM10.44 34.994c0-0.074-0.022-0.133-0.065-0.179s-0.1-0.069-0.17-0.069c-0.076 0-0.137 0.021-0.185 0.064s-0.076 0.104-0.087 0.183z"></path>
<path d="M11.966 34.696v-0.654h0.392v1.695h-0.392v-0.176c-0.054 0.072-0.113 0.124-0.178 0.158s-0.139 0.050-0.224 0.050c-0.151 0-0.274-0.060-0.371-0.179s-0.145-0.273-0.145-0.461c0-0.188 0.048-0.342 0.145-0.462s0.22-0.179 0.371-0.179c0.084 0 0.159 0.017 0.223 0.051s0.125 0.087 0.179 0.158zM11.709 35.486c0.084 0 0.147-0.030 0.191-0.091s0.066-0.15 0.066-0.266c0-0.117-0.022-0.205-0.066-0.266s-0.108-0.092-0.191-0.092c-0.083 0-0.146 0.031-0.191 0.092s-0.066 0.149-0.066 0.266c0 0.116 0.022 0.205 0.066 0.266s0.108 0.091 0.191 0.091z"></path>
<path d="M14.16 35.486c0.084 0 0.147-0.030 0.191-0.091s0.066-0.15 0.066-0.266c0-0.117-0.022-0.205-0.066-0.266s-0.108-0.092-0.191-0.092-0.148 0.031-0.193 0.093c-0.044 0.061-0.066 0.15-0.066 0.265s0.022 0.204 0.066 0.265c0.045 0.061 0.109 0.092 0.193 0.092zM13.9 34.696c0.054-0.071 0.113-0.124 0.179-0.158s0.14-0.051 0.226-0.051c0.15 0 0.274 0.060 0.371 0.179s0.145 0.274 0.145 0.462c0 0.188-0.048 0.342-0.145 0.461s-0.22 0.179-0.371 0.179c-0.085 0-0.161-0.017-0.226-0.050s-0.125-0.086-0.179-0.158v0.176h-0.39v-1.695h0.39z"></path>
<path d="M14.947 34.516h0.391l0.328 0.829 0.279-0.829h0.39l-0.513 1.337c-0.051 0.135-0.111 0.23-0.18 0.285s-0.16 0.081-0.272 0.081h-0.226v-0.256h0.122c0.066 0 0.114-0.011 0.144-0.032s0.054-0.059 0.071-0.113l0.010-0.034z"></path>
<path d="M18.489 34.162v0.344c-0.090-0.040-0.177-0.070-0.262-0.090s-0.165-0.031-0.241-0.031c-0.1 0-0.174 0.014-0.223 0.042s-0.072 0.070-0.072 0.128c0 0.043 0.016 0.077 0.049 0.102s0.091 0.045 0.176 0.063l0.179 0.036c0.181 0.036 0.309 0.092 0.386 0.166s0.115 0.179 0.115 0.316c0 0.179-0.053 0.313-0.16 0.4s-0.269 0.131-0.488 0.131c-0.103 0-0.207-0.010-0.311-0.029s-0.208-0.049-0.312-0.087v-0.354c0.104 0.055 0.204 0.097 0.301 0.125s0.191 0.042 0.281 0.042c0.092 0 0.162-0.015 0.21-0.045s0.073-0.074 0.073-0.131c0-0.051-0.016-0.090-0.049-0.117s-0.099-0.053-0.198-0.075l-0.162-0.036c-0.163-0.035-0.282-0.090-0.357-0.167s-0.113-0.179-0.113-0.309c0-0.162 0.052-0.286 0.157-0.374s0.255-0.131 0.451-0.131c0.090 0 0.181 0.007 0.276 0.020s0.192 0.034 0.294 0.060z"></path>
<path d="M20.078 34.72c0.049-0.076 0.108-0.133 0.176-0.173s0.143-0.060 0.224-0.060c0.14 0 0.247 0.043 0.321 0.13s0.11 0.212 0.11 0.377v0.743h-0.392v-0.637c0.001-0.009 0.002-0.019 0.002-0.029s0.001-0.025 0.001-0.043c0-0.087-0.013-0.149-0.038-0.188s-0.066-0.058-0.123-0.058c-0.074 0-0.132 0.031-0.172 0.092s-0.061 0.149-0.062 0.264v0.599h-0.392v-0.637c0-0.135-0.012-0.222-0.035-0.261s-0.065-0.058-0.124-0.058c-0.075 0-0.133 0.031-0.174 0.092s-0.060 0.149-0.060 0.263v0.601h-0.392v-1.221h0.392v0.179c0.048-0.069 0.103-0.121 0.165-0.156s0.131-0.052 0.206-0.052c0.084 0 0.159 0.021 0.223 0.061s0.114 0.098 0.147 0.171z"></path>
<path d="M21.819 35.188c-0.081 0-0.143 0.014-0.184 0.042s-0.061 0.068-0.061 0.122c0 0.049 0.016 0.088 0.049 0.116s0.079 0.042 0.138 0.042c0.073 0 0.135-0.026 0.185-0.078s0.076-0.119 0.076-0.198v-0.045zM22.415 35.041v0.696h-0.394v-0.181c-0.052 0.074-0.111 0.128-0.176 0.162s-0.145 0.050-0.238 0.050c-0.127 0-0.229-0.037-0.309-0.111s-0.118-0.169-0.118-0.287c0-0.143 0.049-0.248 0.148-0.315s0.253-0.101 0.464-0.101h0.229v-0.031c0-0.062-0.025-0.107-0.073-0.135s-0.124-0.043-0.227-0.043c-0.084 0-0.162 0.009-0.234 0.025s-0.139 0.042-0.2 0.075v-0.297c0.084-0.020 0.168-0.036 0.252-0.046s0.168-0.016 0.253-0.016c0.22 0 0.378 0.044 0.476 0.131s0.147 0.228 0.147 0.423z"></path>
<path d="M23.731 34.555v0.296c-0.084-0.035-0.164-0.061-0.242-0.078s-0.151-0.026-0.22-0.026c-0.074 0-0.13 0.009-0.166 0.028s-0.054 0.047-0.054 0.085c0 0.031 0.014 0.056 0.041 0.072s0.076 0.029 0.146 0.037l0.069 0.010c0.2 0.025 0.334 0.067 0.403 0.126s0.104 0.149 0.104 0.274c0 0.13-0.048 0.228-0.144 0.293s-0.239 0.098-0.429 0.098c-0.081 0-0.164-0.007-0.25-0.019s-0.174-0.031-0.265-0.057v-0.297c0.078 0.038 0.157 0.066 0.239 0.085s0.165 0.028 0.25 0.028c0.076 0 0.133-0.010 0.172-0.031s0.058-0.052 0.058-0.094c0-0.035-0.013-0.061-0.040-0.078s-0.079-0.030-0.158-0.040l-0.069-0.009c-0.173-0.021-0.295-0.061-0.365-0.12s-0.105-0.149-0.105-0.268c0-0.129 0.044-0.225 0.132-0.288s0.225-0.094 0.408-0.094c0.072 0 0.147 0.006 0.226 0.016s0.165 0.028 0.259 0.052z"></path>
<path d="M25.333 34.994v0.743h-0.392v-0.566c0-0.107-0.003-0.18-0.008-0.22s-0.013-0.069-0.024-0.088c-0.015-0.025-0.036-0.045-0.063-0.059s-0.056-0.022-0.089-0.022c-0.081 0-0.145 0.031-0.192 0.094s-0.070 0.15-0.070 0.261v0.601h-0.39v-1.695h0.39v0.654c0.059-0.071 0.121-0.124 0.188-0.158s0.139-0.051 0.219-0.051c0.141 0 0.248 0.043 0.321 0.13s0.11 0.212 0.11 0.377z"></path>
<path d="M25.695 34.516h0.39v1.221h-0.39zM25.695 34.042h0.39v0.318h-0.39z"></path>
<path d="M27.446 34.555v0.318c-0.053-0.036-0.107-0.063-0.16-0.081s-0.109-0.026-0.166-0.026c-0.109 0-0.194 0.032-0.255 0.096s-0.091 0.153-0.091 0.267c0 0.114 0.030 0.203 0.091 0.267s0.146 0.095 0.255 0.095c0.061 0 0.118-0.009 0.173-0.027s0.106-0.045 0.152-0.081v0.319c-0.061 0.022-0.123 0.039-0.186 0.050s-0.126 0.017-0.189 0.017c-0.22 0-0.393-0.056-0.517-0.169s-0.186-0.27-0.186-0.471c0-0.201 0.062-0.358 0.186-0.471s0.297-0.17 0.517-0.17c0.064 0 0.127 0.006 0.189 0.017s0.124 0.028 0.186 0.051z"></path>
<path d="M28.363 34.766c-0.086 0-0.152 0.031-0.198 0.093s-0.068 0.152-0.068 0.269c0 0.117 0.023 0.207 0.068 0.269s0.112 0.093 0.198 0.093c0.085 0 0.15-0.031 0.195-0.093s0.068-0.152 0.068-0.269c0-0.117-0.023-0.207-0.068-0.269s-0.11-0.093-0.195-0.093zM28.363 34.487c0.21 0 0.374 0.057 0.492 0.17s0.177 0.27 0.177 0.471c0 0.2-0.059 0.357-0.177 0.471s-0.282 0.17-0.492 0.17c-0.211 0-0.376-0.056-0.495-0.17s-0.178-0.27-0.178-0.471c0-0.201 0.059-0.358 0.178-0.471s0.284-0.17 0.495-0.17z"></path>
<path d="M30.543 34.994v0.743h-0.392v-0.569c0-0.106-0.003-0.178-0.008-0.218s-0.013-0.069-0.024-0.088c-0.015-0.025-0.036-0.045-0.063-0.059s-0.056-0.022-0.089-0.022c-0.081 0-0.145 0.031-0.192 0.094s-0.070 0.15-0.070 0.261v0.601h-0.39v-1.221h0.39v0.179c0.059-0.071 0.121-0.124 0.188-0.158s0.139-0.051 0.219-0.051c0.141 0 0.248 0.043 0.321 0.13s0.11 0.212 0.11 0.377z"></path>
<path d="M31.858 34.555v0.296c-0.084-0.035-0.164-0.061-0.242-0.078s-0.151-0.026-0.22-0.026c-0.074 0-0.13 0.009-0.166 0.028s-0.054 0.047-0.054 0.085c0 0.031 0.014 0.056 0.041 0.072s0.076 0.029 0.146 0.037l0.069 0.010c0.2 0.025 0.334 0.067 0.403 0.126s0.104 0.149 0.104 0.274c0 0.13-0.048 0.228-0.144 0.293s-0.239 0.098-0.429 0.098c-0.081 0-0.164-0.007-0.25-0.019s-0.174-0.031-0.265-0.057v-0.297c0.078 0.038 0.157 0.066 0.239 0.085s0.165 0.028 0.25 0.028c0.076 0 0.133-0.010 0.172-0.031s0.058-0.052 0.058-0.094c0-0.035-0.013-0.061-0.040-0.078s-0.079-0.030-0.158-0.040l-0.069-0.009c-0.173-0.021-0.295-0.061-0.365-0.12s-0.105-0.149-0.105-0.268c0-0.129 0.044-0.225 0.132-0.288s0.225-0.094 0.408-0.094c0.072 0 0.147 0.006 0.226 0.016s0.165 0.028 0.259 0.052z"></path>
</symbol>
<symbol id="icon-mat" viewBox="0 0 32 32">
<path d="M24.33 1.351c-1.964 0-3.562 1.598-3.562 3.562v1.558h-16.184c-0.263 0-0.476 0.213-0.476 0.476v16.091c0 0.263 0.213 0.476 0.476 0.476h19.746c1.964 0 3.561-1.597 3.561-3.561v-15.039c0-1.964-1.597-3.562-3.561-3.562zM24.33 22.562h-19.271v-15.139h15.709v12.529c0 0.263 0.213 0.476 0.476 0.476s0.476-0.213 0.476-0.476c0-1.44 1.171-2.611 2.611-2.611s2.611 1.171 2.611 2.611c0 1.439-1.171 2.61-2.61 2.61zM26.94 17.53c-0.651-0.701-1.58-1.141-2.61-1.141s-1.96 0.44-2.611 1.141l-0-12.617c0-1.439 1.171-2.61 2.611-2.61s2.61 1.171 2.61 2.61z"></path>
<path d="M3.323 33.742c-0.082 0.043-0.168 0.075-0.257 0.096s-0.181 0.033-0.278 0.033c-0.289 0-0.518-0.081-0.686-0.242s-0.253-0.38-0.253-0.657c0-0.277 0.084-0.496 0.253-0.658s0.398-0.242 0.686-0.242c0.097 0 0.189 0.011 0.278 0.033s0.175 0.054 0.257 0.096v0.359c-0.083-0.057-0.165-0.098-0.245-0.124s-0.165-0.040-0.254-0.040c-0.16 0-0.285 0.051-0.377 0.154s-0.137 0.243-0.137 0.422c0 0.179 0.046 0.32 0.137 0.422s0.217 0.153 0.377 0.153c0.089 0 0.174-0.013 0.254-0.039s0.162-0.068 0.245-0.124z"></path>
<path d="M4.641 32.891c-0.036-0.017-0.072-0.029-0.108-0.037s-0.072-0.012-0.108-0.012c-0.107 0-0.19 0.034-0.248 0.103s-0.086 0.166-0.086 0.294v0.6h-0.416v-1.301h0.416v0.214c0.054-0.085 0.115-0.148 0.184-0.186s0.152-0.059 0.249-0.059c0.014 0 0.029 0.001 0.045 0.002s0.040 0.004 0.071 0.008z"></path>
<path d="M6.146 33.184v0.119h-0.971c0.010 0.097 0.045 0.17 0.105 0.219s0.145 0.073 0.253 0.073c0.088 0 0.177-0.013 0.269-0.039s0.186-0.065 0.283-0.118v0.321c-0.098 0.037-0.197 0.065-0.295 0.084s-0.196 0.029-0.295 0.029c-0.235 0-0.418-0.060-0.549-0.179s-0.196-0.287-0.196-0.503c0-0.212 0.064-0.379 0.192-0.501s0.305-0.182 0.53-0.182c0.204 0 0.368 0.062 0.491 0.185s0.184 0.288 0.184 0.494zM5.719 33.045c0-0.078-0.023-0.142-0.069-0.19s-0.107-0.073-0.181-0.073c-0.081 0-0.146 0.023-0.197 0.068s-0.081 0.11-0.093 0.195z"></path>
<path d="M7.044 33.252c-0.087 0-0.152 0.015-0.196 0.045s-0.065 0.072-0.065 0.13c0 0.053 0.018 0.094 0.053 0.123s0.085 0.045 0.147 0.045c0.078 0 0.144-0.028 0.197-0.084s0.080-0.127 0.080-0.211v-0.048zM7.68 33.096v0.742h-0.42v-0.193c-0.056 0.079-0.118 0.137-0.188 0.173s-0.154 0.053-0.254 0.053c-0.135 0-0.245-0.039-0.329-0.118s-0.126-0.18-0.126-0.306c0-0.152 0.053-0.264 0.158-0.335s0.27-0.108 0.495-0.108h0.245v-0.033c0-0.066-0.026-0.114-0.078-0.144s-0.132-0.046-0.242-0.046c-0.089 0-0.172 0.009-0.249 0.027s-0.148 0.044-0.213 0.080v-0.317c0.089-0.022 0.179-0.038 0.268-0.049s0.18-0.017 0.27-0.017c0.234 0 0.403 0.047 0.507 0.139s0.157 0.243 0.157 0.451z"></path>
<path d="M8.52 32.168v0.369h0.428v0.298h-0.428v0.552c0 0.060 0.012 0.101 0.036 0.123s0.072 0.032 0.143 0.032h0.213v0.297h-0.357c-0.164 0-0.28-0.034-0.349-0.103s-0.103-0.185-0.103-0.349v-0.552h-0.207v-0.298h0.207v-0.369z"></path>
<path d="M10.501 33.184v0.119h-0.972c0.010 0.097 0.045 0.17 0.105 0.219s0.145 0.073 0.253 0.073c0.088 0 0.177-0.013 0.269-0.039s0.186-0.065 0.283-0.118v0.321c-0.098 0.037-0.197 0.065-0.295 0.084s-0.196 0.029-0.295 0.029c-0.235 0-0.418-0.060-0.549-0.179s-0.196-0.287-0.196-0.503c0-0.212 0.064-0.379 0.192-0.501s0.305-0.182 0.53-0.182c0.204 0 0.368 0.062 0.491 0.185s0.184 0.288 0.184 0.494zM10.074 33.045c0-0.078-0.023-0.142-0.069-0.19s-0.107-0.073-0.181-0.073c-0.081 0-0.146 0.023-0.197 0.068s-0.081 0.11-0.093 0.195z"></path>
<path d="M11.701 32.728v-0.697h0.418v1.807h-0.418v-0.188c-0.057 0.076-0.121 0.133-0.19 0.168s-0.148 0.053-0.239 0.053c-0.16 0-0.292-0.064-0.395-0.191s-0.154-0.291-0.154-0.491c0-0.201 0.051-0.365 0.154-0.492s0.235-0.191 0.395-0.191c0.090 0 0.169 0.018 0.238 0.054s0.133 0.092 0.19 0.168zM11.427 33.569c0.089 0 0.157-0.032 0.204-0.097s0.070-0.16 0.070-0.283c0-0.124-0.023-0.219-0.070-0.283s-0.115-0.098-0.204-0.098c-0.088 0-0.156 0.033-0.203 0.098s-0.070 0.159-0.070 0.283c0 0.124 0.023 0.218 0.070 0.283s0.115 0.097 0.203 0.097z"></path>
<path d="M14.039 33.569c0.089 0 0.157-0.032 0.204-0.097s0.070-0.16 0.070-0.283c0-0.124-0.023-0.219-0.070-0.283s-0.115-0.098-0.204-0.098-0.158 0.033-0.205 0.099c-0.047 0.065-0.071 0.16-0.071 0.283s0.023 0.217 0.071 0.283c0.048 0.065 0.116 0.098 0.205 0.098zM13.762 32.728c0.057-0.076 0.121-0.132 0.19-0.168s0.15-0.054 0.241-0.054c0.16 0 0.292 0.064 0.395 0.191s0.154 0.291 0.154 0.492c0 0.2-0.052 0.364-0.154 0.491s-0.235 0.191-0.395 0.191c-0.091 0-0.171-0.018-0.241-0.053s-0.133-0.092-0.19-0.168v0.188h-0.416v-1.807h0.416z"></path>
<path d="M14.878 32.537h0.416l0.35 0.883 0.297-0.883h0.416l-0.547 1.425c-0.055 0.144-0.119 0.245-0.192 0.303s-0.17 0.087-0.29 0.087h-0.241v-0.273h0.13c0.070 0 0.122-0.012 0.154-0.034s0.058-0.062 0.076-0.12l0.011-0.036z"></path>
<path d="M17.239 32.103h0.449l0.46 1.28 0.459-1.281h0.449l-0.642 1.734h-0.534z"></path>
<path d="M20.566 33.184v0.119h-0.971c0.010 0.097 0.045 0.17 0.105 0.219s0.145 0.073 0.253 0.073c0.088 0 0.177-0.013 0.269-0.039s0.186-0.065 0.283-0.118v0.321c-0.098 0.037-0.197 0.065-0.295 0.084s-0.196 0.029-0.295 0.029c-0.235 0-0.418-0.060-0.549-0.179s-0.196-0.287-0.196-0.503c0-0.212 0.064-0.379 0.192-0.501s0.305-0.182 0.53-0.182c0.204 0 0.368 0.062 0.491 0.185s0.184 0.288 0.184 0.494zM20.139 33.045c0-0.078-0.023-0.142-0.069-0.19s-0.107-0.073-0.181-0.073c-0.081 0-0.146 0.023-0.197 0.068s-0.081 0.11-0.093 0.195z"></path>
<path d="M21.932 32.578v0.338c-0.057-0.039-0.114-0.067-0.17-0.086s-0.116-0.028-0.177-0.028c-0.116 0-0.207 0.034-0.272 0.102s-0.097 0.163-0.097 0.284c0 0.122 0.032 0.216 0.097 0.284s0.155 0.101 0.272 0.101c0.065 0 0.126-0.010 0.185-0.029s0.113-0.048 0.162-0.086v0.34c-0.065 0.024-0.131 0.042-0.198 0.053s-0.134 0.018-0.201 0.018c-0.235 0-0.418-0.060-0.551-0.18s-0.198-0.288-0.198-0.502c0-0.214 0.066-0.382 0.198-0.502s0.316-0.181 0.551-0.181c0.068 0 0.135 0.006 0.201 0.018s0.132 0.030 0.198 0.054z"></path>
<path d="M22.745 32.168v0.369h0.428v0.298h-0.428v0.552c0 0.060 0.012 0.101 0.036 0.123s0.072 0.032 0.143 0.032h0.213v0.297h-0.357c-0.164 0-0.28-0.034-0.349-0.103s-0.103-0.185-0.103-0.349v-0.552h-0.207v-0.298h0.207v-0.369z"></path>
<path d="M24.047 32.803c-0.092 0-0.162 0.033-0.211 0.1s-0.072 0.162-0.072 0.287c0 0.125 0.024 0.22 0.072 0.287s0.119 0.099 0.211 0.099c0.091 0 0.16-0.033 0.208-0.099s0.072-0.162 0.072-0.287c0-0.125-0.024-0.22-0.072-0.287s-0.117-0.1-0.208-0.1zM24.047 32.505c0.224 0 0.399 0.060 0.525 0.182s0.189 0.288 0.189 0.502c0 0.213-0.063 0.381-0.189 0.502s-0.301 0.181-0.525 0.181c-0.225 0-0.4-0.060-0.527-0.181s-0.19-0.288-0.19-0.502c0-0.214 0.063-0.381 0.19-0.502s0.303-0.182 0.527-0.182z"></path>
<path d="M26.028 32.891c-0.036-0.017-0.072-0.029-0.108-0.037s-0.072-0.012-0.108-0.012c-0.107 0-0.19 0.034-0.248 0.103s-0.086 0.166-0.086 0.294v0.6h-0.416v-1.301h0.416v0.214c0.054-0.085 0.115-0.148 0.184-0.186s0.152-0.059 0.249-0.059c0.014 0 0.029 0.001 0.045 0.002s0.040 0.004 0.071 0.008z"></path>
<path d="M27.251 32.578v0.315c-0.089-0.037-0.175-0.065-0.258-0.084s-0.161-0.028-0.234-0.028c-0.079 0-0.138 0.010-0.177 0.030s-0.057 0.050-0.057 0.091c0 0.033 0.015 0.059 0.044 0.077s0.081 0.031 0.156 0.039l0.073 0.010c0.213 0.027 0.356 0.072 0.429 0.134s0.111 0.159 0.111 0.291c0 0.139-0.051 0.243-0.154 0.312s-0.254 0.104-0.457 0.104c-0.086 0-0.175-0.007-0.267-0.021s-0.186-0.033-0.283-0.060v-0.316c0.083 0.040 0.168 0.071 0.255 0.091s0.176 0.030 0.266 0.030c0.081 0 0.142-0.011 0.183-0.033s0.062-0.056 0.062-0.1c0-0.037-0.014-0.065-0.043-0.083s-0.084-0.032-0.169-0.042l-0.073-0.010c-0.185-0.023-0.314-0.066-0.389-0.128s-0.111-0.158-0.111-0.286c0-0.138 0.047-0.24 0.141-0.307s0.239-0.1 0.435-0.1c0.076 0 0.157 0.006 0.241 0.017s0.176 0.030 0.276 0.055z"></path>
<path d="M28.104 32.168v0.369h0.428v0.298h-0.428v0.552c0 0.060 0.012 0.101 0.036 0.123s0.072 0.032 0.143 0.032h0.213v0.297h-0.357c-0.164 0-0.28-0.034-0.349-0.103s-0.103-0.185-0.103-0.349v-0.552h-0.207v-0.298h0.207v-0.369z"></path>
<path d="M29.37 33.252c-0.087 0-0.152 0.015-0.196 0.045s-0.065 0.072-0.065 0.13c0 0.053 0.017 0.094 0.052 0.123s0.085 0.045 0.147 0.045c0.078 0 0.144-0.028 0.197-0.084s0.080-0.127 0.080-0.211v-0.048zM30.006 33.096v0.742h-0.42v-0.193c-0.056 0.079-0.118 0.137-0.188 0.173s-0.154 0.053-0.254 0.053c-0.135 0-0.244-0.039-0.329-0.118s-0.126-0.18-0.126-0.306c0-0.152 0.052-0.264 0.158-0.335s0.27-0.108 0.495-0.108h0.244v-0.033c0-0.066-0.026-0.114-0.078-0.144s-0.132-0.046-0.242-0.046c-0.089 0-0.172 0.009-0.249 0.027s-0.148 0.044-0.213 0.080v-0.317c0.089-0.022 0.179-0.038 0.268-0.049s0.18-0.017 0.27-0.017c0.234 0 0.403 0.047 0.507 0.139s0.157 0.243 0.157 0.451z"></path>
<path d="M30.392 32.031h0.416v1.807h-0.416z"></path>
<path d="M31.207 32.031h0.416v1.807h-0.416z"></path>
</symbol>
<symbol id="icon-keyboard-switch" viewBox="0 0 32 32">
<path d="M23.232 11.918l-0.804-9.643c-0.016-0.202-0.108-0.39-0.257-0.527s-0.344-0.213-0.546-0.212h-11.25c-0.203-0.001-0.398 0.075-0.546 0.212s-0.241 0.326-0.257 0.527l-0.804 9.643c-0.018 0.224 0.058 0.445 0.211 0.61s0.368 0.258 0.592 0.258h2.411v1.607h-0.804c-0.213 0-0.418 0.085-0.568 0.236s-0.236 0.355-0.236 0.568v6.429c0 0.287 0.153 0.552 0.402 0.696s0.555 0.143 0.804 0 0.402-0.409 0.402-0.696v-0.804h1.607v2.411c0 0.213 0.085 0.418 0.236 0.568s0.355 0.236 0.568 0.236h3.214c0.213 0 0.418-0.085 0.568-0.236s0.236-0.355 0.236-0.568v-2.411h1.607v0.804c0 0.287 0.153 0.552 0.402 0.696s0.555 0.143 0.804 0 0.402-0.409 0.402-0.696v-6.429c0-0.213-0.085-0.418-0.236-0.568s-0.355-0.236-0.568-0.236h-0.804v-1.607h2.411c0.225 0.001 0.439-0.093 0.592-0.258s0.229-0.386 0.212-0.61zM11.982 16h8.036v3.214h-8.036zM16.804 22.429h-1.607v-1.607h1.607zM18.411 14.393h-4.821v-1.607h4.821zM10.447 11.179l0.667-8.036h9.772l0.667 8.036z"></path>
</symbol>
</defs>
</svg>
